<svg id="Capa_1" enable-background="new 0 0 512 512" height="512" viewBox="0 0 512 512" width="512" xmlns="http://www.w3.org/2000/svg"><path d="m144.667 91.834c4.143 0 7.5-3.358 7.5-7.5s-3.357-7.5-7.5-7.5h-100.909c-4.143 0-7.5 3.358-7.5 7.5v138.955c0 4.142 3.357 7.5 7.5 7.5h161.842c4.143 0 7.5-3.358 7.5-7.5v-138.955c0-4.142-3.357-7.5-7.5-7.5h-25.933c-4.143 0-7.5 3.358-7.5 7.5s3.357 7.5 7.5 7.5h18.433v28.115l-56.419 44.846-36.245-26.821c-2.829-2.094-6.734-1.938-9.389.375l-44.789 39.03v-85.545zm-43.309 61.783 36.024 26.658c2.727 2.018 6.47 1.954 9.128-.158l51.589-41.007v76.678h-146.841v-18.513z"/><path d="m92.801 246.85c-4.143 0-7.5 3.358-7.5 7.5s3.357 7.5 7.5 7.5h24.521c4.143 0 7.5-3.358 7.5-7.5s-3.357-7.5-7.5-7.5z"/><path d="m43.758 261.85h24.521c4.143 0 7.5-3.358 7.5-7.5s-3.357-7.5-7.5-7.5h-24.521c-4.143 0-7.5 3.358-7.5 7.5s3.357 7.5 7.5 7.5z"/><path d="m43.758 294.545h161.842c4.143 0 7.5-3.358 7.5-7.5s-3.357-7.5-7.5-7.5h-161.842c-4.143 0-7.5 3.358-7.5 7.5s3.357 7.5 7.5 7.5z"/><path d="m60.105 24.521h-16.347c-4.143 0-7.5 3.358-7.5 7.5s3.357 7.5 7.5 7.5h16.348c4.143 0 7.5-3.358 7.5-7.5s-3.358-7.5-7.501-7.5z"/><path d="m474.398 123.456h-174.154c-15.163 0-27.5 12.336-27.5 27.5v259.17h-51.09c-7.005 0-12.703-5.699-12.703-12.703v-8.878h2.805c15.163 0 27.5-12.336 27.5-27.5v-333.545c0-15.164-12.337-27.5-27.5-27.5h-174.154c-15.163 0-27.5 12.336-27.5 27.5v147c0 4.142 3.357 7.5 7.5 7.5s7.5-3.358 7.5-7.5v-110.457h199.154v297.001c0 6.893-5.607 12.5-12.5 12.5h-2.805v-18.548c0-15.276-12.428-27.704-27.703-27.704h-8.559v-9.568c0-4.142-3.357-7.5-7.5-7.5h-80.813c-4.143 0-7.5 3.358-7.5 7.5v32.325c0 4.142 3.357 7.5 7.5 7.5h80.813c4.143 0 7.5-3.358 7.5-7.5v-7.757h8.559c7.005 0 12.703 5.699 12.703 12.704v18.548h-156.349c-6.893 0-12.5-5.607-12.5-12.5v-151.544c0-4.142-3.357-7.5-7.5-7.5s-7.5 3.358-7.5 7.5v151.544c0 15.164 12.337 27.5 27.5 27.5h156.35v8.878c0 15.275 12.428 27.703 27.703 27.703h51.09v59.375c0 15.164 12.337 27.5 27.5 27.5h174.154c15.163 0 27.5-12.336 27.5-27.5v-214.969c0-4.142-3.357-7.5-7.5-7.5s-7.5 3.358-7.5 7.5v214.969c0 6.893-5.607 12.5-12.5 12.5h-174.155c-6.893 0-12.5-5.607-12.5-12.5v-297.001h199.154v47.033c0 4.142 3.357 7.5 7.5 7.5s7.5-3.358 7.5-7.5v-83.576c0-15.164-12.336-27.5-27.5-27.5zm-449.296-74.413v-21.543c0-6.893 5.607-12.5 12.5-12.5h174.154c6.893 0 12.5 5.607 12.5 12.5v21.543zm66.774 293.506v-17.325h65.813v8.37c-.063.391-.104.789-.104 1.198s.042.807.104 1.198v6.559zm195.868-170.05v-21.543c0-6.893 5.607-12.5 12.5-12.5h174.154c6.893 0 12.5 5.607 12.5 12.5v21.543z"/><path d="m475.634 268.399v-60.61c0-4.142-3.357-7.5-7.5-7.5h-161.626c-4.143 0-7.5 3.358-7.5 7.5v60.61c0 4.142 3.357 7.5 7.5 7.5h161.626c4.142 0 7.5-3.357 7.5-7.5zm-15-7.5h-146.626v-45.61h146.626z"/><path d="m355.443 294.967c-4.143 0-7.5 3.358-7.5 7.5s3.357 7.5 7.5 7.5h24.521c4.143 0 7.5-3.358 7.5-7.5s-3.357-7.5-7.5-7.5z"/><path d="m306.4 309.967h24.521c4.143 0 7.5-3.358 7.5-7.5s-3.357-7.5-7.5-7.5h-24.521c-4.143 0-7.5 3.358-7.5 7.5s3.358 7.5 7.5 7.5z"/><path d="m468.242 334.364h-161.842c-4.143 0-7.5 3.358-7.5 7.5s3.357 7.5 7.5 7.5h161.842c4.143 0 7.5-3.358 7.5-7.5s-3.357-7.5-7.5-7.5z"/><path d="m468.242 375.78h-161.842c-4.143 0-7.5 3.358-7.5 7.5s3.357 7.5 7.5 7.5h161.842c4.143 0 7.5-3.358 7.5-7.5s-3.357-7.5-7.5-7.5z"/><path d="m468.242 417.197h-161.842c-4.143 0-7.5 3.358-7.5 7.5s3.357 7.5 7.5 7.5h161.842c4.143 0 7.5-3.358 7.5-7.5s-3.357-7.5-7.5-7.5z"/><path d="m468.242 458.614h-161.842c-4.143 0-7.5 3.358-7.5 7.5s3.357 7.5 7.5 7.5h161.842c4.143 0 7.5-3.358 7.5-7.5s-3.357-7.5-7.5-7.5z"/><path d="m322.748 147.977h-16.348c-4.143 0-7.5 3.358-7.5 7.5s3.357 7.5 7.5 7.5h16.348c4.143 0 7.5-3.358 7.5-7.5s-3.357-7.5-7.5-7.5z"/></svg>