<svg id="Capa_1" enable-background="new 0 0 512 512" height="512" viewBox="0 0 512 512" width="512" xmlns="http://www.w3.org/2000/svg"><circle cx="48.917" cy="37.805" r="10.102"/><circle cx="90.333" cy="37.805" r="10.102"/><circle cx="131.75" cy="37.805" r="10.102"/><path d="m484.297 0h-456.594c-15.275 0-27.703 12.428-27.703 27.703v379.821c0 12.676 8.561 23.384 20.203 26.663v11.723c0 12.677 8.562 23.385 20.204 26.664v11.723c0 15.275 12.427 27.703 27.703 27.703h130.265c4.142 0 7.5-3.357 7.5-7.5s-3.358-7.5-7.5-7.5h-130.265c-7.004 0-12.703-5.698-12.703-12.703v-10.683h303c4.143 0 7.5-3.357 7.5-7.5s-3.357-7.5-7.5-7.5h-310.5c-7.005 0-12.704-5.699-12.704-12.704v-10.683h73.297c4.142 0 7.5-3.357 7.5-7.5s-3.358-7.5-7.5-7.5h-80.797c-7.004 0-12.703-5.698-12.703-12.703v-331.915h482v331.915c0 7.005-5.698 12.703-12.703 12.703h-340.797c-4.142 0-7.5 3.357-7.5 7.5s3.358 7.5 7.5 7.5h333.296v10.683c0 7.005-5.698 12.704-12.703 12.704h-70.5c-4.143 0-7.5 3.357-7.5 7.5s3.357 7.5 7.5 7.5h63v10.683c0 7.005-5.698 12.703-12.703 12.703h-210.453c-4.142 0-7.5 3.357-7.5 7.5s3.358 7.5 7.5 7.5h210.453c15.275 0 27.703-12.428 27.703-27.703v-11.723c11.642-3.28 20.203-13.987 20.203-26.664v-11.723c11.642-3.28 20.203-13.987 20.203-26.663v-379.821c.001-15.275-12.427-27.703-27.702-27.703zm-469.297 60.609v-32.906c0-7.005 5.699-12.703 12.703-12.703h456.594c7.005 0 12.703 5.698 12.703 12.703v32.906z"/><path d="m34.346 392.372c0 4.143 3.358 7.5 7.5 7.5h429.319c4.143 0 7.5-3.357 7.5-7.5v-121.22c0-4.143-3.357-7.5-7.5-7.5h-429.319c-4.142 0-7.5 3.357-7.5 7.5zm429.319-9.911-179.559-50.699 179.559-50.699zm-46.663 2.411h-320.993l160.496-45.317zm-160.497-60.903-160.496-45.317h320.992zm-27.601 7.793-179.558 50.699v-101.398z"/><path d="m41.846 235.216h195.971c4.142 0 7.5-3.357 7.5-7.5v-121.22c0-4.143-3.358-7.5-7.5-7.5h-195.971c-4.142 0-7.5 3.357-7.5 7.5v121.22c0 4.142 3.358 7.5 7.5 7.5zm188.471-20.958-76.229-47.152 76.229-47.152zm-18.881 5.958h-143.209l71.604-44.292zm-71.605-61.928-71.604-44.292h143.209zm-14.256 8.818-76.229 47.152v-94.305z"/><path d="m471.165 235.216c4.143 0 7.5-3.357 7.5-7.5v-121.22c0-4.143-3.357-7.5-7.5-7.5h-195.972c-4.143 0-7.5 3.357-7.5 7.5v121.22c0 4.143 3.357 7.5 7.5 7.5zm-188.472-115.262 76.229 47.152-76.229 47.152zm180.972 94.304-76.229-47.152 76.229-47.152zm-18.881 5.958h-143.209l71.605-44.292zm-71.605-61.928-71.605-44.292h143.209z"/></svg>