<svg id="Capa_1" enable-background="new 0 0 512 512" height="512" viewBox="0 0 512 512" width="512" xmlns="http://www.w3.org/2000/svg"><path d="m484.5 504.5h-457c-11.046 0-20-8.954-20-20v-36c0-2.209 1.791-4 4-4h489c2.209 0 4 1.791 4 4v36c0 11.046-8.954 20-20 20z" fill="#e6e6e6"/><path d="m500.5 444.5h-30c2.209 0 4 1.791 4 4v36c0 11.046-8.954 20-20 20h30c11.046 0 20-8.954 20-20v-36c0-2.209-1.791-4-4-4z" fill="#d4d4d4"/><path d="m458 444.5h-404c-11.046 0-20-8.954-20-20v-240c0-11.046 8.954-20 20-20h404c11.046 0 20 8.954 20 20v240c0 11.046-8.954 20-20 20z" fill="#8c9eff"/><path d="m458 164.5h-30c11.046 0 20 8.954 20 20v240c0 11.046-8.954 20-20 20h30c11.046 0 20-8.954 20-20v-240c0-11.046-8.954-20-20-20z" fill="#7488ed"/><path d="m64 412.5v-216c0-1.105.895-2 2-2h380c1.105 0 2 .895 2 2v216c0 1.105-.895 2-2 2h-380c-1.105 0-2-.895-2-2z" fill="#bdf9ff"/><path d="m302 474.5h-92c-6.627 0-12-5.373-12-12v-18h116v18c0 6.627-5.373 12-12 12z" fill="#bdbdbd"/><path d="m208 238.5h-76c-16.569 0-30-13.431-30-30v-73c0-16.569 13.431-30 30-30h76c5.523 0 10 4.477 10 10v113c0 5.523-4.477 10-10 10z" fill="#ffca28"/><path d="m208 105.5h-30c5.523 0 10 4.477 10 10v113c0 5.523-4.477 10-10 10h30c5.523 0 10-4.477 10-10v-113c0-5.523-4.477-10-10-10z" fill="#ffb300"/><path d="m380 31.5v281s-43.906-95.089-162-95.089v-90.821c118.094-.001 162-95.09 162-95.09z" fill="#f5f5f5"/><path d="m182.5 358.5h-20c-11.046 0-20-8.954-20-20v-100h60v100c0 11.046-8.954 20-20 20z" fill="#8c9eff"/><path d="m172.5 238.5v100c0 9.316-6.379 17.121-15 19.344 1.601.413 3.27.656 5 .656h20c11.046 0 20-8.954 20-20v-100z" fill="#7488ed"/><path d="m404 336.5h-18c-3.314 0-6-2.686-6-6v-317c0-3.314 2.686-6 6-6h18c3.314 0 6 2.686 6 6v317c0 3.314-2.686 6-6 6z" fill="#ff3d7a"/><path d="m500.5 437h-18.009c1.923-3.752 3.009-8.002 3.009-12.5v-240c0-15.164-12.336-27.5-27.5-27.5h-40.5v-93.127c0-4.142-3.358-7.5-7.5-7.5s-7.5 3.358-7.5 7.5v265.127h-15v-314h15v16.5c0 4.142 3.358 7.5 7.5 7.5s7.5-3.358 7.5-7.5v-18c0-7.444-6.056-13.5-13.5-13.5h-18c-7.444 0-13.5 6.056-13.5 13.5v16.235c-2.743 5.3-13.697 24.904-34.764 44.224-30.897 28.334-68.625 43.453-112.236 44.998v-3.457c0-9.649-7.851-17.5-17.5-17.5h-76c-20.678 0-37.5 16.822-37.5 37.5v21.5h-40.5c-15.164 0-27.5 12.336-27.5 27.5v39.372c0 4.142 3.358 7.5 7.5 7.5s7.5-3.358 7.5-7.5v-39.372c0-6.893 5.607-12.5 12.5-12.5h40.5v15h-28.5c-5.238 0-9.5 4.262-9.5 9.5v216c0 5.238 4.262 9.5 9.5 9.5h285.869c4.142 0 7.5-3.358 7.5-7.5s-3.358-7.5-7.5-7.5h-280.369v-205h23v6.5c0 20.678 16.822 37.5 37.5 37.5h3v92.5c0 15.164 12.336 27.5 27.5 27.5h20c15.164 0 27.5-12.336 27.5-27.5v-92.614c8.711-.995 15.5-8.413 15.5-17.386v-3.457c43.611 1.545 81.339 16.664 112.236 44.998 21.075 19.327 32.029 38.938 34.764 44.223v16.236c0 7.444 6.056 13.5 13.5 13.5h18c7.444 0 13.5-6.056 13.5-13.5v-128.5h23v205h-56.538c-4.142 0-7.5 3.358-7.5 7.5s3.358 7.5 7.5 7.5h62.038c5.238 0 9.5-4.262 9.5-9.5v-216c0-5.238-4.262-9.5-9.5-9.5h-28.5v-15h40.5c6.893 0 12.5 5.607 12.5 12.5v240c0 6.893-5.607 12.5-12.5 12.5h-404c-6.893 0-12.5-5.607-12.5-12.5v-168.5c0-4.142-3.358-7.5-7.5-7.5s-7.5 3.358-7.5 7.5v168.5c0 4.498 1.086 8.748 3.009 12.5h-18.009c-6.341 0-11.5 5.159-11.5 11.5v36c0 15.164 12.336 27.5 27.5 27.5h457c15.164 0 27.5-12.336 27.5-27.5v-36c0-6.341-5.159-11.5-11.5-11.5zm-305.5-98.5c0 6.893-5.607 12.5-12.5 12.5h-20c-6.893 0-12.5-5.607-12.5-12.5v-92.5h45zm15.5-110c0 1.378-1.122 2.5-2.5 2.5h-76c-12.407 0-22.5-10.093-22.5-22.5v-73c0-12.407 10.093-22.5 22.5-22.5h76c1.378 0 2.5 1.122 2.5 2.5zm137.874 30.946c-23.49-21.696-63.579-47.392-122.874-49.408v-76.075c59.295-2.017 99.384-27.712 122.874-49.408 10.192-9.414 18.156-18.809 24.126-26.87v228.631c-5.97-8.062-13.934-17.456-24.126-26.87zm-41.874 192.554v10.5c0 2.481-2.019 4.5-4.5 4.5h-92c-2.481 0-4.5-2.019-4.5-4.5v-10.5zm190.5 32.5c0 6.893-5.607 12.5-12.5 12.5h-457c-6.893 0-12.5-5.607-12.5-12.5v-32.5h175.5v10.5c0 10.752 8.748 19.5 19.5 19.5h92c10.752 0 19.5-8.748 19.5-19.5v-10.5h175.5z"/><path d="m188.269 143.5h-44c-4.142 0-7.5 3.358-7.5 7.5s3.358 7.5 7.5 7.5h44c4.142 0 7.5-3.358 7.5-7.5s-3.358-7.5-7.5-7.5z"/><path d="m188.269 187.5h-44c-4.142 0-7.5 3.358-7.5 7.5s3.358 7.5 7.5 7.5h44c4.142 0 7.5-3.358 7.5-7.5s-3.358-7.5-7.5-7.5z"/></svg>