<svg id="Capa_1" enable-background="new 0 0 512 512" height="512" viewBox="0 0 512 512" width="512" xmlns="http://www.w3.org/2000/svg"><path d="m484.5 504.5h-457c-11.046 0-20-8.954-20-20v-457c0-11.046 8.954-20 20-20h457c11.046 0 20 8.954 20 20v457c0 11.046-8.954 20-20 20z" fill="#e4f6ff"/><path d="m484.297 7.5h-26.264c11.158 0 20.203 9.045 20.203 20.203v456.594c0 11.158-9.045 20.203-20.203 20.203h26.264c11.158 0 20.203-9.045 20.203-20.203v-456.594c0-11.158-9.045-20.203-20.203-20.203z" fill="#d3effb"/><path d="m504.5 68.11h-497v-40.61c0-11.046 8.954-20 20-20h457c11.046 0 20 8.954 20 20z" fill="#90d8f9"/><path d="m484.297 7.5h-26.264c11.158 0 20.203 9.045 20.203 20.203v40.407h26.264v-40.407c0-11.158-9.045-20.203-20.203-20.203z" fill="#75cef9"/><path d="m45.886 106.496h185.87v358.608h-185.87z" fill="#a2f4c1"/><path d="m280.244 106.496h185.87v185.87h-185.87z" fill="#f4dd45" transform="matrix(-1 0 0 -1 746.358 398.862)"/><circle cx="48.917" cy="37.805" r="10.102"/><circle cx="90.333" cy="37.805" r="10.102"/><circle cx="131.75" cy="37.805" r="10.102"/><path d="m484.5 0h-457c-15.164 0-27.5 12.336-27.5 27.5v231.063c0 4.142 3.358 7.5 7.5 7.5s7.5-3.358 7.5-7.5v-182.953h482v72.849c0 4.142 3.358 7.5 7.5 7.5s7.5-3.358 7.5-7.5v-120.959c0-15.164-12.336-27.5-27.5-27.5zm-469.5 60.61v-33.11c0-6.893 5.607-12.5 12.5-12.5h457c6.893 0 12.5 5.607 12.5 12.5v33.11z"/><path d="m504.5 176.083c-4.142 0-7.5 3.358-7.5 7.5v300.917c0 6.893-5.607 12.5-12.5 12.5h-457c-6.893 0-12.5-5.607-12.5-12.5v-190.937c0-4.142-3.358-7.5-7.5-7.5s-7.5 3.358-7.5 7.5v190.937c0 15.164 12.336 27.5 27.5 27.5h457c15.164 0 27.5-12.336 27.5-27.5v-300.917c0-4.142-3.358-7.5-7.5-7.5z"/><path d="m231.756 98.996h-185.87c-4.142 0-7.5 3.358-7.5 7.5v358.607c0 4.142 3.358 7.5 7.5 7.5h185.87c4.142 0 7.5-3.358 7.5-7.5v-1.405c0-.001 0-.002 0-.003v-357.2c0-4.141-3.358-7.499-7.5-7.499zm-178.37 38.268 76.988 148.536-76.988 148.535zm4.835-23.268h161.2l-80.6 155.506zm80.6 188.102 80.6 155.506h-161.2zm8.447-16.298 76.987-148.535v297.071z"/><path d="m280.244 299.866h185.87c4.142 0 7.5-3.358 7.5-7.5v-185.87c0-4.142-3.358-7.5-7.5-7.5h-185.87c-4.142 0-7.5 3.358-7.5 7.5v185.87c0 4.142 3.358 7.5 7.5 7.5zm178.37-25.607-74.828-74.828 74.828-74.828zm-10.607 10.607h-149.656l74.828-74.828zm-74.828-96.042-74.828-74.828h149.657zm-10.606 10.607-74.828 74.828v-149.656z"/><path d="m280.244 334.211h185.87c4.142 0 7.5-3.358 7.5-7.5s-3.358-7.5-7.5-7.5h-185.87c-4.142 0-7.5 3.358-7.5 7.5s3.358 7.5 7.5 7.5z"/><path d="m280.244 374.618h185.87c4.142 0 7.5-3.358 7.5-7.5s-3.358-7.5-7.5-7.5h-185.87c-4.142 0-7.5 3.358-7.5 7.5s3.358 7.5 7.5 7.5z"/><path d="m280.244 415.024h104.046c4.142 0 7.5-3.358 7.5-7.5s-3.358-7.5-7.5-7.5h-104.046c-4.142 0-7.5 3.358-7.5 7.5s3.358 7.5 7.5 7.5z"/></svg>