<svg xmlns="http://www.w3.org/2000/svg" viewBox="0 0 314.652 314.652"><g fill="#fff"><path d="M157.326 0C70.576 0 0 70.576 0 157.326s70.576 157.326 157.326 157.326 157.326-70.576 157.326-157.326S244.076 0 157.326 0zm0 296.652C80.501 296.652 18 234.15 18 157.326S80.501 18 157.326 18s139.326 62.502 139.326 139.326-62.501 139.326-139.326 139.326z"/><path d="M112.326 121.119a9 9 0 00-9 9v74.414c0 4.971 4.029 9 9 9s9-4.029 9-9v-74.414a9 9 0 00-9-9zM112.326 79.116c-2.37 0-4.69.96-6.36 2.64-1.68 1.67-2.64 3.99-2.64 6.36s.96 4.689 2.64 6.37a9.059 9.059 0 006.36 2.63c2.37 0 4.69-.96 6.36-2.63 1.68-1.681 2.64-4 2.64-6.37s-.96-4.69-2.64-6.36a9.026 9.026 0 00-6.36-2.64zM190.076 128.119c-9.42 0-18.139 3.036-25.25 8.169v-6.169c0-4.971-4.029-9-9-9s-9 4.029-9 9v74.414c0 4.971 4.029 9 9 9s9-4.029 9-9v-33.164c0-13.923 11.327-25.25 25.25-25.25s25.25 11.327 25.25 25.25v35.164c0 4.971 4.029 9 9 9s9-4.029 9-9v-35.164c0-23.848-19.402-43.25-43.25-43.25z"/></g></svg>
