<svg id="Capa_1" enable-background="new 0 0 512 512" height="512" viewBox="0 0 512 512" width="512" xmlns="http://www.w3.org/2000/svg"><path d="m402 504.5h-292c-16.569 0-30-13.431-30-30v-400c0-16.569 13.431-30 30-30h292c16.569 0 30 13.431 30 30v400c0 16.569-13.431 30-30 30z" fill="#f5f5f5"/><path d="m402 44.5v460c16.569 0 30-13.431 30-30v-400c0-16.569-13.431-30-30-30z" fill="#e6e6e6"/><path d="m311 69.5h-110c-5.523 0-10-4.477-10-10v-42c0-5.523 4.477-10 10-10h110c5.523 0 10 4.477 10 10v42c0 5.523-4.477 10-10 10z" fill="#8c9eff"/><path d="m311 7.5h-30c5.523 0 10 4.477 10 10v42c0 5.523-4.477 10-10 10h30c5.523 0 10-4.477 10-10v-42c0-5.523-4.477-10-10-10z" fill="#7488ed"/><path d="m166 152.583h60v89.417h-60z" fill="#ffca28"/><path d="m196 152.583h30v89.417h-30z" fill="#ffb300"/><path d="m226 116h60v126h-60z" fill="#80deea"/><path d="m256 116h30v126h-30z" fill="#4dd0e1"/><path d="m286 187.825h60v54.175h-60z" fill="#ff3d7a"/><path d="m316 187.825h30v54.175h-30z" fill="#eb3870"/><path d="m203.5 342h-52c-2.209 0-4-1.791-4-4v-52c0-2.209 1.791-4 4-4h52c2.209 0 4 1.791 4 4v52c0 2.209-1.791 4-4 4z" fill="#ff3d7a"/><path d="m203.5 439h-52c-2.209 0-4-1.791-4-4v-52c0-2.209 1.791-4 4-4h52c2.209 0 4 1.791 4 4v52c0 2.209-1.791 4-4 4z" fill="#80deea"/><path d="m127.961 497h-17.961c-12.407 0-22.5-10.093-22.5-22.5v-346.63c0-4.142-3.358-7.5-7.5-7.5s-7.5 3.358-7.5 7.5v346.63c0 20.678 16.822 37.5 37.5 37.5h17.961c4.142 0 7.5-3.358 7.5-7.5s-3.357-7.5-7.5-7.5z"/><path d="m432 440.37c-4.142 0-7.5 3.358-7.5 7.5v26.63c0 12.407-10.093 22.5-22.5 22.5h-242.131c-4.142 0-7.5 3.358-7.5 7.5s3.358 7.5 7.5 7.5h242.131c20.678 0 37.5-16.822 37.5-37.5v-26.63c0-4.142-3.358-7.5-7.5-7.5z"/><path d="m402 37h-73.5v-19.5c0-9.649-7.851-17.5-17.5-17.5h-110c-9.649 0-17.5 7.851-17.5 17.5v19.5h-73.5c-20.678 0-37.5 16.822-37.5 37.5v20.998c0 4.142 3.358 7.5 7.5 7.5s7.5-3.358 7.5-7.5v-20.998c0-12.407 10.093-22.5 22.5-22.5h73.5v7.5c0 9.649 7.851 17.5 17.5 17.5h110c9.649 0 17.5-7.851 17.5-17.5v-7.5h73.5c12.407 0 22.5 10.093 22.5 22.5v341.37c0 4.142 3.358 7.5 7.5 7.5s7.5-3.358 7.5-7.5v-341.37c0-20.678-16.822-37.5-37.5-37.5zm-88.5 22.5c0 1.378-1.122 2.5-2.5 2.5h-110c-1.378 0-2.5-1.122-2.5-2.5v-42c0-1.378 1.122-2.5 2.5-2.5h110c1.378 0 2.5 1.122 2.5 2.5z"/><path d="m286 108.5h-60c-4.142 0-7.5 3.358-7.5 7.5v29.083h-52.5c-4.142 0-7.5 3.358-7.5 7.5v81.917h-9.5c-4.142 0-7.5 3.358-7.5 7.5s3.358 7.5 7.5 7.5h214c4.142 0 7.5-3.358 7.5-7.5s-3.358-7.5-7.5-7.5h-9.5v-46.675c0-4.142-3.358-7.5-7.5-7.5h-52.5v-64.325c0-4.142-3.358-7.5-7.5-7.5zm-112.5 51.583h45v74.417h-45zm60-36.583h45v111h-45zm105 71.825v39.175h-45v-39.175z"/><path d="m140 338c0 6.341 5.159 11.5 11.5 11.5h52c6.341 0 11.5-5.159 11.5-11.5v-52c0-6.341-5.159-11.5-11.5-11.5h-52c-6.341 0-11.5 5.159-11.5 11.5zm15-48.5h45v45h-45z"/><path d="m364.5 286.5h-120c-4.142 0-7.5 3.358-7.5 7.5s3.358 7.5 7.5 7.5h120c4.142 0 7.5-3.358 7.5-7.5s-3.358-7.5-7.5-7.5z"/><path d="m364.5 318.5h-120c-4.142 0-7.5 3.358-7.5 7.5s3.358 7.5 7.5 7.5h120c4.142 0 7.5-3.358 7.5-7.5s-3.358-7.5-7.5-7.5z"/><path d="m215 435v-52c0-6.341-5.159-11.5-11.5-11.5h-52c-6.341 0-11.5 5.159-11.5 11.5v52c0 6.341 5.159 11.5 11.5 11.5h52c6.341 0 11.5-5.159 11.5-11.5zm-15-3.5h-45v-45h45z"/><path d="m364.5 383.5h-120c-4.142 0-7.5 3.358-7.5 7.5s3.358 7.5 7.5 7.5h120c4.142 0 7.5-3.358 7.5-7.5s-3.358-7.5-7.5-7.5z"/><path d="m364.5 415.5h-120c-4.142 0-7.5 3.358-7.5 7.5s3.358 7.5 7.5 7.5h120c4.142 0 7.5-3.358 7.5-7.5s-3.358-7.5-7.5-7.5z"/></svg>