<svg height="511pt" viewBox="0 -44 511.99954 511" width="511pt" xmlns="http://www.w3.org/2000/svg"><path d="m448.386719 416.820312h-416.839844c-13.28125 0-24.046875-10.765624-24.046875-24.046874v-296.597657h464.933594v296.597657c0 13.28125-10.765625 24.046874-24.046875 24.046874zm0 0" fill="#eceaec"/><path d="m31.546875 376.742188v-280.566407h-24.046875v296.597657c0 13.28125 10.765625 24.046874 24.046875 24.046874h416.839844c13.28125 0 24.046875-10.765624 24.046875-24.046874h-424.851563c-8.855469 0-16.035156-7.175782-16.035156-16.03125zm0 0" fill="#dad8db"/><path d="m448.386719 48.078125h-416.839844c-13.28125 0-24.046875 10.769531-24.046875 24.050781v40.078125h464.933594v-40.078125c0-13.28125-10.765625-24.050781-24.046875-24.050781zm0 0" fill="#6f6571"/><path d="m47.582031 208.402344h384.773438v136.273437h-384.773438zm0 0" fill="#ff8086"/><path d="m497.628906 14.867188c-9.320312-9.320313-24.492187-9.132813-33.578125.421874l-204.488281 214.972657 22.671875 22.675781 214.976563-204.488281c9.550781-9.085938 9.742187-24.257813.417968-33.582031zm0 0" fill="#f6d190"/><path d="m497.628906 14.867188c-9.320312-9.320313-24.492187-9.132813-33.578125.421874l-204.488281 214.972657 12.339844 12.339843s226.070312-227.386718 225.726562-227.734374zm0 0" fill="#ecbd83"/><path d="m260.898438 228.925781c-6.589844-.367187-13.304688 1.96875-18.339844 7.007813-8.179688 8.179687-16.363282 34.074218-20.285156 47.855468-1.125 3.953126 2.484374 7.5625 6.4375 6.4375 13.78125-3.921874 39.273437-12.644531 47.453124-20.824218 4.355469-4.359375 5.757813-10.761719 6.070313-16.464844zm0 0" fill="#785353"/><path d="m151.789062 320.628906c-44.269531 0-80.160156-35.890625-80.160156-80.160156v-32.066406h-24.046875v136.273437h384.773438v-24.046875zm0 0" fill="#e5646e"/><path d="m282.234375 252.9375 81.339844-77.375-26.640625-26.636719-76.035156 80zm0 0" fill="#dad8db"/><path d="m7.5 72.128906v40.082032h24.046875v-64.132813c-13.28125 0-24.046875 10.769531-24.046875 24.050781zm0 0" fill="#5d5360"/><path d="m282.777344 205.90625-21.878906 23.019531 21.335937 24.011719 24.382813-23.191406zm0 0" fill="#c8c5c9"/><path d="m502.933594 9.566406c-5.949219-5.953125-13.828125-9.160156-22.273438-9.066406-8.414062.105469-16.242187 3.523438-22.042968 9.621094l-28.972657 30.457031h-398.097656c-17.394531 0-31.546875 14.15625-31.546875 31.550781v320.644532c0 17.394531 14.152344 31.546874 31.546875 31.546874h416.839844c17.394531 0 31.546875-14.152343 31.546875-31.546874v-317.542969l22.445312-21.347657c6.097656-5.800781 9.511719-13.625 9.617188-22.039062.105468-8.417969-3.113282-16.328125-9.0625-22.277344zm-471.386719 46.011719h383.828125l-46.734375 49.128906h-353.640625v-32.578125c0-9.125 7.421875-16.550781 16.546875-16.550781zm433.390625 49.128906h-15.992188l15.992188-15.207031zm27.105469-61.691406-98.246094 93.453125c-3.003906 2.855469-3.121094 7.601562-.265625 10.601562 2.851562 3.003907 7.601562 3.121094 10.601562.265626l29.046876-27.628907h31.757812v273.066407c0 9.125-7.421875 16.546874-16.546875 16.546874h-416.84375c-9.125 0-16.546875-7.421874-16.546875-16.546874v-273.066407h339.375l-77.234375 81.195313h-229.558594c-4.144531 0-7.5 3.359375-7.5 7.5v136.273437c0 4.140625 3.355469 7.5 7.5 7.5h16.035157c4.140624 0 7.5-3.359375 7.5-7.5s-3.359376-7.5-7.5-7.5h-8.535157v-121.273437h207.789063l-5.28125 5.554687c-7.625.484375-14.878906 3.71875-20.335938 9.171875-5.609375 5.609375-11.300781 17.230469-17.398437 35.523438-4.292969 12.878906-7.128907 24.167968-7.246094 24.644531-.636719 2.554687.109375 5.257813 1.972656 7.121094 1.425781 1.425781 3.339844 2.195312 5.304688 2.195312.605469 0 1.214843-.070312 1.816406-.222656.476563-.117187 11.765625-2.953125 24.644531-7.246094 18.292969-6.097656 29.914063-11.789062 35.523438-17.398437 5.445312-5.445313 8.695312-12.664063 9.175781-20.339844l41.003906-39.003906h92.804688v121.277344h-329.179688c-4.140625 0-7.5 3.355468-7.5 7.5 0 4.140624 3.359375 7.5 7.5 7.5h336.679688c4.140625 0 7.5-3.359376 7.5-7.5v-136.277344c0-4.140625-3.359375-7.5-7.5-7.5h-84.535157l33.453126-31.824219c3.003906-2.851563 3.121093-7.601563.265624-10.601563-2.851562-3-7.601562-3.121093-10.601562-.265624l-7.230469 6.878906-16.296875-16.296875 122.074219-128.335938c2.988281-3.140625 7.023437-4.902343 11.363281-4.957031 4.34375-.015625 8.414063 1.605469 11.480469 4.671875s4.726563 7.144531 4.667969 11.480469c-.050782 4.335937-1.8125 8.371094-4.953125 11.363281zm-186.4375 177.339844-13.460938-13.464844 44.925781-47.226563 15.765626 15.765626zm-50.019531 16.535156 20.035156 20.039063c-.71875 2.894531-2.210938 5.5625-4.355469 7.707031-3.277344 3.277343-16.90625 10.382812-40.738281 17.332031 6.945312-23.820312 14.054687-37.453125 17.335937-40.734375 2.144531-2.144531 4.828125-3.625 7.722657-4.34375zm26.78125 5.570313-12.328126-12.328126 11.765626-12.367187 12.929687 12.929687zm0 0"/><path d="m39.644531 87.644531c4.140625 0 7.5-3.359375 7.5-7.5s-3.359375-7.5-7.5-7.5h-.078125c-4.144531 0-7.460937 3.359375-7.460937 7.5s3.398437 7.5 7.539062 7.5zm0 0"/><path d="m87.660156 87.644531c4.144532 0 7.5-3.359375 7.5-7.5s-3.355468-7.5-7.5-7.5h-.078125c-4.144531 0-7.460937 3.359375-7.460937 7.5s3.398437 7.5 7.539062 7.5zm0 0"/><path d="m63.691406 87.644531c4.144532 0 7.5-3.359375 7.5-7.5s-3.355468-7.5-7.5-7.5h-.078125c-4.140625 0-7.460937 3.359375-7.460937 7.5s3.398437 7.5 7.539062 7.5zm0 0"/><path d="m119.726562 87.644531h240.484376c4.140624 0 7.5-3.359375 7.5-7.5s-3.359376-7.5-7.5-7.5h-240.484376c-4.140624 0-7.5 3.359375-7.5 7.5s3.355469 7.5 7.5 7.5zm0 0"/><path d="m47.582031 183.839844h208.417969c4.140625 0 7.5-3.359375 7.5-7.5 0-4.144532-3.359375-7.5-7.5-7.5h-208.417969c-4.144531 0-7.5 3.355468-7.5 7.5 0 4.140625 3.355469 7.5 7.5 7.5zm0 0"/><path d="m47.582031 151.773438h240.484375c4.140625 0 7.5-3.359376 7.5-7.5 0-4.140626-3.359375-7.5-7.5-7.5h-240.484375c-4.144531 0-7.5 3.359374-7.5 7.5 0 4.140624 3.355469 7.5 7.5 7.5zm0 0"/><path d="m296.082031 369.242188h-112.226562c-4.140625 0-7.5 3.355468-7.5 7.5 0 4.140624 3.359375 7.5 7.5 7.5h112.226562c4.140625 0 7.5-3.359376 7.5-7.5 0-4.144532-3.359375-7.5-7.5-7.5zm0 0"/><path d="m151.789062 369.242188h-104.207031c-4.144531 0-7.5 3.355468-7.5 7.5 0 4.140624 3.355469 7.5 7.5 7.5h104.207031c4.144532 0 7.5-3.359376 7.5-7.5 0-4.144532-3.355468-7.5-7.5-7.5zm0 0"/><path d="m432.355469 369.242188h-104.210938c-4.140625 0-7.5 3.355468-7.5 7.5 0 4.140624 3.359375 7.5 7.5 7.5h104.210938c4.140625 0 7.5-3.359376 7.5-7.5 0-4.144532-3.359375-7.5-7.5-7.5zm0 0"/></svg>